<svg xmlns="http://www.w3.org/2000/svg" xmlns:xlink="http://www.w3.org/1999/xlink" width="500" zoomAndPan="magnify" viewBox="0 0 375 374.999991" height="500" preserveAspectRatio="xMidYMid meet" version="1.0"><rect x="-37.5" width="450" fill="#ffffff" y="-37.499999" height="449.999989" fill-opacity="1"/><rect x="-37.5" width="450" fill="#ffffff" y="-37.499999" height="449.999989" fill-opacity="1"/><rect x="-37.5" width="450" fill="#ffffff" y="-37.499999" height="449.999989" fill-opacity="1"/><path fill="#000000" d="M 34.089844 0 C 15.460938 0 0 15.460938 0 34.089844 L 0 221.589844 C 0 240.222656 15.460938 255.683594 34.089844 255.683594 L 119.316406 255.683594 L 119.316406 340.910156 C 119.316406 359.746094 134.574219 375 153.410156 375 L 340.910156 375 C 359.746094 375 375 359.746094 375 340.910156 L 375 153.410156 C 375 134.574219 359.746094 119.316406 340.910156 119.316406 L 255.683594 119.316406 L 255.683594 34.089844 C 255.683594 15.460938 240.222656 0 221.589844 0 Z M 34.089844 34.089844 L 221.589844 34.089844 L 221.589844 136.363281 L 136.363281 221.589844 L 34.089844 221.589844 Z M 119.316406 59.660156 L 119.316406 85.226562 L 68.183594 85.226562 L 68.183594 102.273438 L 153.410156 102.273438 C 153.410156 128.675781 145.96875 144.527344 132.269531 154.941406 C 128.523438 157.789062 124.058594 160.175781 119.152344 162.230469 C 113.648438 159.507812 108.480469 156.429688 104.136719 152.777344 C 91.914062 142.496094 85.226562 129.40625 85.226562 119.316406 L 68.183594 119.316406 C 68.183594 136.316406 77.960938 153.050781 93.152344 165.828125 C 94.15625 166.671875 95.390625 167.347656 96.445312 168.15625 C 87.898438 169.523438 78.699219 170.453125 68.183594 170.453125 L 68.183594 187.5 C 87.191406 187.5 104.117188 185.535156 118.585938 180.773438 C 129.132812 184.945312 140.828125 187.5 153.410156 187.5 L 153.410156 170.453125 C 149.238281 170.453125 145.25 169.9375 141.324219 169.324219 C 141.730469 169.027344 142.1875 168.792969 142.589844 168.492188 C 160.847656 154.613281 170.453125 132.121094 170.453125 102.273438 L 187.5 102.273438 L 187.5 85.226562 L 136.363281 85.226562 L 136.363281 59.660156 Z M 228.449219 187.101562 L 265.800781 187.101562 L 306.1875 307.21875 L 272.894531 307.21875 L 265.402344 280.816406 L 226.183594 280.816406 L 218.460938 307.21875 L 188.164062 307.21875 Z M 245.160156 214.167969 L 232.011719 258.84375 L 259.644531 258.84375 L 246.757812 214.167969 Z M 245.160156 214.167969 " fill-opacity="1" fill-rule="nonzero"/></svg>